P3
# source image used for testing
# convert to the other formats with:
# for x in png bmp tga jpg hdr psd pnm ; do convert source.ppm rgb.$x ; done
5 2
255
000 000 000   255 255 255   255 000 000  000 255 000   000 000 255
000 000 000   001 002 003   004 005 006  007 008 009   010 011 012
